<?xml version="1.0" encoding="UTF-8"?>
<svg xmlns="http://www.w3.org/2000/svg" xmlns:xlink="http://www.w3.org/1999/xlink" width="50px" height="50px" viewBox="0 0 50 50" version="1.1">
<defs>
<radialGradient id="radial0" gradientUnits="userSpaceOnUse" cx="0.48297" cy="1.02258" fx="0.48297" fy="1.02258" r="0.94548" gradientTransform="matrix(23.445918,0,0,23.480469,14.65766,1.332031)">
<stop offset="0.1743" style="stop-color:rgb(90.588235%,62.352941%,40.784314%);stop-opacity:1;"/>
<stop offset="0.2776" style="stop-color:rgb(90.196078%,63.529412%,44.705882%);stop-opacity:1;"/>
<stop offset="0.4528" style="stop-color:rgb(89.019608%,67.058824%,55.294118%);stop-opacity:1;"/>
<stop offset="0.5312" style="stop-color:rgb(88.627451%,68.627451%,60.784314%);stop-opacity:1;"/>
<stop offset="0.7833" style="stop-color:rgb(88.235294%,81.960784%,80%);stop-opacity:1;"/>
<stop offset="0.8828" style="stop-color:rgb(87.843137%,87.843137%,87.843137%);stop-opacity:1;"/>
</radialGradient>
<radialGradient id="radial1" gradientUnits="userSpaceOnUse" cx="0.46574" cy="-0.17021" fx="0.46574" fy="-0.17021" r="1.04429" gradientTransform="matrix(0,19.792969,-19.533708,0,22.170929,7.888235)">
<stop offset="0.3896" style="stop-color:rgb(79.607843%,17.647059%,18.823529%);stop-opacity:1;"/>
<stop offset="0.4916" style="stop-color:rgb(82.352941%,21.568627%,18.823529%);stop-opacity:1;"/>
<stop offset="0.6646" style="stop-color:rgb(89.411765%,32.156863%,19.215686%);stop-opacity:1;"/>
<stop offset="0.7153" style="stop-color:rgb(91.764706%,35.686275%,19.215686%);stop-opacity:1;"/>
<stop offset="0.7921" style="stop-color:rgb(91.764706%,37.647059%,19.607843%);stop-opacity:1;"/>
<stop offset="0.887" style="stop-color:rgb(92.54902%,43.529412%,21.176471%);stop-opacity:1;"/>
<stop offset="0.9672" style="stop-color:rgb(92.941176%,50.980392%,22.745098%);stop-opacity:1;"/>
</radialGradient>
<radialGradient id="radial2" gradientUnits="userSpaceOnUse" cx="-0.27509" cy="-0.21261" fx="-0.27509" fy="-0.21261" r="2.47627" gradientTransform="matrix(1.910156,0,0,2.072656,41.960938,21.936688)">
<stop offset="0.0448" style="stop-color:rgb(79.607843%,17.647059%,18.823529%);stop-opacity:1;"/>
<stop offset="0.3439" style="stop-color:rgb(82.352941%,21.568627%,18.823529%);stop-opacity:1;"/>
<stop offset="0.8512" style="stop-color:rgb(89.411765%,32.156863%,19.215686%);stop-opacity:1;"/>
<stop offset="1" style="stop-color:rgb(91.764706%,35.686275%,19.215686%);stop-opacity:1;"/>
</radialGradient>
<radialGradient id="radial3" gradientUnits="userSpaceOnUse" cx="-0.29546" cy="-0.14202" fx="-0.29546" fy="-0.14202" r="1.45983" gradientTransform="matrix(4.433553,0,0,4.335938,41.943418,12.75)">
<stop offset="0.2939" style="stop-color:rgb(79.607843%,17.647059%,18.823529%);stop-opacity:1;"/>
<stop offset="0.5149" style="stop-color:rgb(82.352941%,21.568627%,18.823529%);stop-opacity:1;"/>
<stop offset="0.89" style="stop-color:rgb(89.411765%,32.156863%,19.215686%);stop-opacity:1;"/>
<stop offset="1" style="stop-color:rgb(91.764706%,35.686275%,19.215686%);stop-opacity:1;"/>
</radialGradient>
<radialGradient id="radial4" gradientUnits="userSpaceOnUse" cx="-0.01091" cy="1.31876" fx="-0.01091" fy="1.31876" r="1.30022" gradientTransform="matrix(7.550885,0,0,7.566406,27.972656,0.0351562)">
<stop offset="0.0448" style="stop-color:rgb(79.607843%,17.647059%,18.823529%);stop-opacity:1;"/>
<stop offset="0.3439" style="stop-color:rgb(82.352941%,21.568627%,18.823529%);stop-opacity:1;"/>
<stop offset="0.8512" style="stop-color:rgb(89.411765%,32.156863%,19.215686%);stop-opacity:1;"/>
<stop offset="1" style="stop-color:rgb(91.764706%,35.686275%,19.215686%);stop-opacity:1;"/>
</radialGradient>
<radialGradient id="radial5" gradientUnits="userSpaceOnUse" cx="1.27538" cy="1.31898" fx="1.27538" fy="1.31898" r="1.49345" gradientTransform="matrix(4.761719,0,0,5.051992,19.175781,2.960527)">
<stop offset="0.4232" style="stop-color:rgb(79.607843%,17.647059%,18.823529%);stop-opacity:1;"/>
<stop offset="0.6038" style="stop-color:rgb(82.352941%,21.568627%,18.823529%);stop-opacity:1;"/>
<stop offset="0.9102" style="stop-color:rgb(89.411765%,32.156863%,19.215686%);stop-opacity:1;"/>
<stop offset="1" style="stop-color:rgb(91.764706%,35.686275%,19.215686%);stop-opacity:1;"/>
</radialGradient>
<radialGradient id="radial6" gradientUnits="userSpaceOnUse" cx="1.29457" cy="-0.24912" fx="1.29457" fy="-0.24912" r="1.39942" gradientTransform="matrix(4.704949,0,0,4.691406,5.105289,12.269531)">
<stop offset="0.3406" style="stop-color:rgb(79.607843%,17.647059%,18.823529%);stop-opacity:1;"/>
<stop offset="0.547" style="stop-color:rgb(82.352941%,21.568627%,18.823529%);stop-opacity:1;"/>
<stop offset="0.8973" style="stop-color:rgb(89.411765%,32.156863%,19.215686%);stop-opacity:1;"/>
<stop offset="1" style="stop-color:rgb(91.764706%,35.686275%,19.215686%);stop-opacity:1;"/>
</radialGradient>
<radialGradient id="radial7" gradientUnits="userSpaceOnUse" cx="0.95294" cy="-0.4037" fx="0.95294" fy="-0.4037" r="3.28308" gradientTransform="matrix(2.21875,0,0,2.43082,8.929688,21.4905)">
<stop offset="0.4833" style="stop-color:rgb(79.607843%,17.647059%,18.823529%);stop-opacity:1;"/>
<stop offset="0.6451" style="stop-color:rgb(82.352941%,21.568627%,18.823529%);stop-opacity:1;"/>
<stop offset="0.9195" style="stop-color:rgb(89.411765%,32.156863%,19.215686%);stop-opacity:1;"/>
<stop offset="1" style="stop-color:rgb(91.764706%,35.686275%,19.215686%);stop-opacity:1;"/>
</radialGradient>
<radialGradient id="radial8" gradientUnits="userSpaceOnUse" cx="0.50033" cy="0.50021" fx="0.50033" fy="0.50021" r="0.78647" gradientTransform="matrix(5.91605,0,0,5.90625,13.041,14.589844)">
<stop offset="0.0448" style="stop-color:rgb(79.607843%,17.647059%,18.823529%);stop-opacity:1;"/>
<stop offset="0.3439" style="stop-color:rgb(82.352941%,21.568627%,18.823529%);stop-opacity:1;"/>
<stop offset="0.8512" style="stop-color:rgb(89.411765%,32.156863%,19.215686%);stop-opacity:1;"/>
<stop offset="1" style="stop-color:rgb(91.764706%,35.686275%,19.215686%);stop-opacity:1;"/>
</radialGradient>
<radialGradient id="radial9" gradientUnits="userSpaceOnUse" cx="0.50024" cy="0.50007" fx="0.50024" fy="0.50007" r="0.80209" gradientTransform="matrix(6.250518,0,0,6.5,32.344711,13.496094)">
<stop offset="0.0448" style="stop-color:rgb(79.607843%,17.647059%,18.823529%);stop-opacity:1;"/>
<stop offset="0.3439" style="stop-color:rgb(82.352941%,21.568627%,18.823529%);stop-opacity:1;"/>
<stop offset="0.8512" style="stop-color:rgb(89.411765%,32.156863%,19.215686%);stop-opacity:1;"/>
<stop offset="1" style="stop-color:rgb(91.764706%,35.686275%,19.215686%);stop-opacity:1;"/>
</radialGradient>
<radialGradient id="radial10" gradientUnits="userSpaceOnUse" cx="-0.46282" cy="0.44724" fx="-0.46282" fy="0.44724" r="1.21766" gradientTransform="matrix(14.050781,0,0,14.474797,26.257812,6.460938)">
<stop offset="0.3943" style="stop-color:rgb(79.607843%,17.647059%,18.823529%);stop-opacity:1;"/>
<stop offset="0.5839" style="stop-color:rgb(82.352941%,21.568627%,18.823529%);stop-opacity:1;"/>
<stop offset="0.9057" style="stop-color:rgb(89.411765%,32.156863%,19.215686%);stop-opacity:1;"/>
<stop offset="1" style="stop-color:rgb(91.764706%,35.686275%,19.215686%);stop-opacity:1;"/>
</radialGradient>
<radialGradient id="radial11" gradientUnits="userSpaceOnUse" cx="1.37282" cy="0.79026" fx="1.37282" fy="0.79026" r="1.26759" gradientTransform="matrix(13.023437,0,0,13.252936,12.199219,7.510578)">
<stop offset="0.4205" style="stop-color:rgb(79.607843%,17.647059%,18.823529%);stop-opacity:1;"/>
<stop offset="0.6019" style="stop-color:rgb(82.352941%,21.568627%,18.823529%);stop-opacity:1;"/>
<stop offset="0.9097" style="stop-color:rgb(89.411765%,32.156863%,19.215686%);stop-opacity:1;"/>
<stop offset="1" style="stop-color:rgb(91.764706%,35.686275%,19.215686%);stop-opacity:1;"/>
</radialGradient>
</defs>
<g id="surface1">
<path style=" stroke:none;fill-rule:nonzero;fill:url(#radial0);" d="M 29.117188 24.8125 C 29.117188 24.8125 29.003906 20.054688 31.410156 17.222656 C 33.8125 14.390625 36.902344 12.234375 38.851562 10.878906 C 40.796875 9.519531 43.546875 7.816406 43.203125 5.382812 C 42.859375 2.945312 40.933594 1.332031 32.578125 1.332031 C 24.21875 1.332031 18.472656 2.101562 13.144531 4.871094 C 7.820312 7.648438 10.078125 11.234375 12.347656 11.839844 C 14.347656 12.378906 16.894531 12.589844 18.914062 14.722656 C 22.574219 18.582031 22.191406 24.527344 22.191406 24.527344 Z M 29.117188 24.8125 "/>
<path style=" stroke:none;fill-rule:nonzero;fill:rgb(44.313726%,45.882353%,47.058824%);fill-opacity:1;" d="M 15.375 26.738281 C 15.375 26.738281 8.851562 35.691406 7.128906 37.898438 C 5.410156 40.109375 1.863281 43.734375 2.09375 44.183594 C 2.324219 44.636719 5.015625 45.714844 5.015625 45.714844 C 5.015625 45.714844 18.640625 47.640625 19.726562 47.640625 C 20.8125 47.640625 43.140625 41.355469 43.140625 41.355469 C 43.140625 41.355469 35.296875 24.753906 32.773438 25.714844 C 30.253906 26.679688 15.375 26.738281 15.375 26.738281 Z M 15.375 26.738281 "/>
<path style=" stroke:none;fill-rule:nonzero;fill:rgb(27.843139%,29.411766%,30.588236%);fill-opacity:1;" d="M 26.023438 32.0625 C 26.023438 32.0625 24.078125 33.761719 23.164062 34.667969 C 22.246094 35.578125 19.683594 37.617188 20.015625 37.953125 C 20.289062 38.230469 24.15625 36.492188 24.558594 36.292969 C 24.902344 36.121094 29.175781 34.550781 29.460938 34.953125 C 29.746094 35.351562 28.503906 36.292969 28.085938 36.878906 C 27.703125 37.421875 20.882812 44.21875 19.273438 44.636719 C 18.113281 44.941406 11.085938 45.320312 10.855469 44.75 C 10.625 44.1875 13.371094 40.332031 12.691406 39.765625 C 12.003906 39.199219 9.195312 41.019531 7.535156 41.984375 C 5.878906 42.949219 3.300781 44.179688 2.898438 44.238281 C 2.496094 44.296875 2.097656 44.179688 2.097656 44.179688 C 2.097656 44.179688 1.976562 44.890625 5.535156 46.503906 C 8.335938 47.773438 10.628906 48.941406 18.304688 49.675781 C 25.976562 50.410156 31.472656 49.734375 34.675781 49.277344 C 37.882812 48.824219 43.777344 47.007812 45.324219 46.332031 C 46.867188 45.652344 48.066406 44.949219 47.902344 44.464844 C 47.84375 44.292969 38.914062 32.570312 38.914062 32.570312 L 34.097656 25.492188 L 26.023438 32.058594 Z M 26.023438 32.0625 "/>
<path style=" stroke:none;fill-rule:nonzero;fill:url(#radial1);" d="M 20.394531 20.476562 C 18.613281 20.738281 17.980469 22.738281 16.125 25.074219 C 15.054688 26.417969 14.140625 27.332031 13.632812 27.949219 C 13.0625 28.640625 12.304688 30.070312 13.0625 30.472656 C 13.816406 30.871094 14.984375 29.671875 15.300781 29.007812 C 15.617188 28.347656 16.085938 27.667969 16.527344 28.132812 C 16.96875 28.597656 16.996094 29.410156 15.867188 30.339844 C 14.738281 31.277344 13.414062 32.363281 13.542969 33.332031 C 13.667969 34.300781 14.324219 34.578125 15.082031 34.359375 C 15.835938 34.140625 17.660156 32.054688 18.351562 31.027344 C 19.046875 30.003906 20.144531 28.226562 20.898438 28.226562 C 21.65625 28.226562 21.644531 29.78125 20.144531 31.523438 C 18.417969 33.539062 17.574219 34.238281 15.519531 36.074219 C 13.390625 37.976562 13.667969 38.65625 14.042969 39.027344 C 14.421875 39.402344 15.492188 39.492188 17.03125 38.191406 C 18.574219 36.882812 20.746094 34.425781 21.691406 33.332031 C 22.632812 32.242188 23.480469 31.058594 24.460938 31.121094 C 25.433594 31.183594 25.179688 32.148438 25.304688 32.617188 C 25.429688 33.082031 25.429688 33.953125 26.59375 33.953125 C 27.757812 33.953125 28.386719 32.769531 28.765625 31.835938 C 29.140625 30.902344 29.109375 29.660156 29.863281 29.535156 C 30.617188 29.410156 30.710938 30.15625 31.308594 31.339844 C 31.90625 32.523438 34.207031 37.4375 34.773438 38.308594 C 35.339844 39.183594 35.96875 40.832031 37.824219 40.269531 C 39.675781 39.710938 37.289062 36.316406 36.722656 35.476562 C 36.15625 34.636719 34.519531 31.800781 33.890625 29.902344 C 33.261719 28.007812 33.261719 27.410156 33.671875 27.101562 C 34.078125 26.789062 34.773438 27.660156 35.6875 29.339844 C 36.597656 31.023438 37.386719 32.582031 38.109375 33.203125 C 38.828125 33.828125 39.457031 33.765625 39.773438 33.480469 C 40.085938 33.203125 40.214844 32.144531 39.394531 31.335938 C 38.425781 30.347656 37.550781 29.277344 36.773438 28.132812 C 35.683594 26.503906 34.652344 24.839844 33.671875 23.140625 C 32.917969 21.835938 32.484375 20.9375 31.457031 20.777344 C 30.128906 20.578125 29.171875 21.558594 28.417969 22.085938 C 27.660156 22.613281 26.625 22.898438 25.582031 22.835938 C 24.546875 22.773438 23.164062 21.652344 22.597656 21.152344 C 22.035156 20.664062 21.464844 20.324219 20.398438 20.476562 Z M 20.394531 20.476562 "/>
<path style=" stroke:none;fill-rule:nonzero;fill:rgb(92.54902%,37.254903%,19.607843%);fill-opacity:1;" d="M 21.324219 22.164062 C 21.324219 22.164062 22.039062 22.3125 22.558594 22.699219 C 23.078125 23.085938 24.359375 24.117188 26.023438 24.09375 C 27.691406 24.074219 28.617188 23.28125 29.289062 22.894531 C 29.960938 22.507812 30.585938 22.574219 30.585938 22.574219 C 30.585938 22.574219 29.457031 26.929688 26.105469 27.058594 C 21.71875 27.230469 21.324219 22.164062 21.324219 22.164062 Z M 21.324219 22.164062 "/>
<path style=" stroke:none;fill-rule:nonzero;fill:url(#radial2);" d="M 42.171875 22.753906 C 41.558594 22.839844 41.878906 23.707031 41.960938 25.757812 C 42.050781 27.808594 42.03125 28.675781 43.015625 28.675781 C 44.253906 28.679688 43.863281 26.105469 43.628906 25.324219 C 43.398438 24.542969 42.910156 22.648438 42.171875 22.753906 Z M 42.171875 22.753906 "/>
<path style=" stroke:none;fill-rule:nonzero;fill:url(#radial3);" d="M 42.023438 12.75 C 41.753906 13.28125 42.605469 13.878906 43.394531 14.800781 C 43.925781 15.425781 44.707031 16.96875 45.792969 17.085938 C 46.875 17.199219 47 15.914062 46.460938 15.175781 C 45.9375 14.453125 45.03125 13.730469 44.007812 13.210938 C 42.988281 12.691406 42.230469 12.34375 42.023438 12.75 Z M 42.023438 12.75 "/>
<path style=" stroke:none;fill-rule:nonzero;fill:url(#radial4);" d="M 28.207031 7.601562 C 28.527344 7.746094 28.847656 7.542969 28.964844 7.109375 C 29.042969 6.824219 30.332031 4.746094 32.238281 3.472656 C 33.785156 2.429688 34.515625 2.429688 35.304688 2.113281 C 35.785156 1.917969 36.210938 1.183594 35.976562 0.636719 C 35.753906 0.117188 35.273438 -0.0820312 34.488281 0.0351562 C 33.988281 0.105469 32.167969 0.566406 30.367188 2.492188 C 28.148438 4.859375 28.027344 6.507812 27.972656 6.796875 C 27.914062 7.082031 27.894531 7.460938 28.207031 7.601562 Z M 28.207031 7.601562 "/>
<path style=" stroke:none;fill-rule:nonzero;fill:url(#radial5);" d="M 23.9375 7.863281 C 23.335938 8.019531 22.828125 7.167969 21.75 6.070312 C 20.667969 4.96875 19.703125 4.828125 19.175781 4.160156 C 18.648438 3.492188 18.738281 2.742188 19.207031 2.335938 C 19.671875 1.933594 20.488281 1.875 21.21875 2.421875 C 21.949219 2.972656 22.886719 4.015625 23.554688 5.457031 C 23.921875 6.238281 24.496094 7.714844 23.9375 7.863281 Z M 23.9375 7.863281 "/>
<path style=" stroke:none;fill-rule:nonzero;fill:url(#radial6);" d="M 9.75 12.269531 C 9.328125 11.878906 7.640625 12.574219 6.347656 13.648438 C 5.730469 14.164062 5.109375 14.769531 4.855469 15.402344 C 4.640625 15.945312 4.648438 16.628906 5.152344 16.960938 C 5.605469 17.257812 6.160156 17.117188 6.546875 16.824219 C 7.078125 16.414062 7.449219 15.585938 7.757812 15.128906 C 8.304688 14.332031 9.210938 13.574219 9.507812 13.320312 C 9.777344 13.082031 10.070312 12.570312 9.753906 12.273438 Z M 9.75 12.269531 "/>
<path style=" stroke:none;fill-rule:nonzero;fill:url(#radial7);" d="M 11.148438 23.1875 C 10.664062 23.039062 9.929688 23.566406 9.320312 25.882812 C 8.777344 27.933594 8.609375 29.78125 9.976562 29.816406 C 11.410156 29.851562 10.8125 27.785156 10.980469 25.917969 C 11.148438 24.054688 11.636719 23.335938 11.148438 23.191406 Z M 11.148438 23.1875 "/>
<path style=" stroke:none;fill-rule:nonzero;fill:url(#radial8);" d="M 11.019531 20.496094 C 11.820312 20.65625 12.238281 20.054688 12.402344 19.503906 C 12.535156 19.058594 13.082031 16.769531 15.945312 16.511719 C 18.714844 16.261719 20.695312 19.019531 20.980469 19.324219 C 21.269531 19.625 21.648438 19.679688 21.859375 19.464844 C 22.050781 19.277344 22.011719 18.933594 21.824219 18.464844 C 21.628906 17.96875 19.339844 14.078125 15.277344 14.589844 C 11.429688 15.070312 10.101562 18.007812 10.132812 19.128906 C 10.164062 19.914062 10.390625 20.371094 11.019531 20.496094 Z M 11.019531 20.496094 "/>
<path style=" stroke:none;fill-rule:nonzero;fill:url(#radial9);" d="M 29.261719 19.996094 C 29.785156 20.167969 30.027344 19.589844 30.214844 19.324219 C 30.402344 19.050781 31.40625 17.152344 33.191406 16.242188 C 34.976562 15.332031 36.320312 15.234375 38.003906 15.988281 C 38.898438 16.390625 39.527344 17.480469 39.910156 18.144531 C 40.421875 19.035156 41.132812 19.273438 41.8125 18.898438 C 42.492188 18.527344 42.59375 17.417969 41.589844 16.085938 C 40.777344 15.011719 38.964844 13.175781 35.753906 13.496094 C 30.636719 14.003906 29.253906 18.441406 29.121094 18.867188 C 28.976562 19.355469 28.90625 19.878906 29.261719 19.996094 Z M 29.261719 19.996094 "/>
<path style=" stroke:none;fill-rule:nonzero;fill:url(#radial10);" d="M 26.796875 20.953125 C 27.328125 21.007812 27.464844 20.773438 27.613281 19.863281 C 27.949219 17.804688 28.464844 13.925781 31.21875 10.785156 C 33.390625 8.304688 35.835938 8.605469 36.917969 9.269531 C 37.859375 9.851562 38.089844 10.410156 38.472656 10.8125 C 38.855469 11.214844 39.621094 11.695312 40.308594 11.214844 C 40.886719 10.816406 41.027344 9.796875 40.027344 8.683594 C 39.03125 7.574219 38.011719 6.664062 35.507812 6.460938 C 33.003906 6.257812 30.527344 7.851562 29.195312 9.773438 C 27.867188 11.695312 26.894531 14.421875 26.589844 16.273438 C 26.285156 18.117188 26.257812 19.757812 26.257812 20.140625 C 26.257812 20.515625 26.359375 20.910156 26.796875 20.953125 Z M 26.796875 20.953125 "/>
<path style=" stroke:none;fill-rule:nonzero;fill:url(#radial11);" d="M 24.660156 20.957031 C 25.21875 20.875 25.296875 20.453125 25.222656 19.796875 C 25.144531 19.140625 24.648438 15.53125 23.648438 12.726562 C 22.652344 9.917969 21.148438 7.300781 18.207031 6.757812 C 15.269531 6.214844 12.933594 8.257812 12.605469 8.59375 C 12.09375 9.121094 11.558594 10.003906 12.199219 10.710938 C 12.835938 11.421875 13.867188 10.867188 14.53125 10.160156 C 15.195312 9.449219 16.308594 8.480469 18.128906 9.039062 C 19.941406 9.59375 20.800781 11.273438 21.59375 12.871094 C 22.386719 14.464844 23.015625 16.761719 23.347656 17.976562 C 23.679688 19.183594 23.886719 20.144531 24.019531 20.503906 C 24.148438 20.835938 24.402344 20.996094 24.660156 20.960938 Z M 24.660156 20.957031 "/>
</g>
</svg>
