<svg version="1.1" id="Layer_1" xmlns="http://www.w3.org/2000/svg" xmlns:xlink="http://www.w3.org/1999/xlink" x="0px" y="0px"
	 width="100%" viewBox="0 0 1024 1024" enable-background="new 0 0 1024 1024" xml:space="preserve">
<path fill="#000000" opacity="1.000000" stroke="none" 
	d="
M1.000000,394.000000 
	C1.000000,262.666687 1.000000,131.833359 1.000000,1.000035 
	C342.333282,1.000023 683.666565,1.000023 1025.000000,1.000012 
	C1025.000000,342.333252 1025.000000,683.666504 1025.000000,1024.999756 
	C683.666809,1024.999878 342.333618,1024.999878 1.000207,1025.000000 
	C1.000000,814.833313 1.000000,604.666687 1.000000,394.000000 
M860.000000,888.507568 
	C859.000854,881.768372 858.085876,875.015503 856.986389,868.292725 
	C854.044678,850.306396 849.120789,832.867798 842.458618,815.902588 
	C840.854553,811.817993 838.966614,808.137390 841.778198,803.161438 
	C847.291626,793.403870 852.188232,783.223999 856.475098,772.861084 
	C869.385620,741.651062 876.033325,709.294556 874.148071,675.278259 
	C873.404846,661.868042 871.826721,648.718018 869.115662,635.571289 
	C864.124390,611.367676 854.825195,588.877502 843.446960,567.137634 
	C844.589600,565.916748 845.908997,564.830627 846.830811,563.474243 
	C866.010742,535.251099 874.329102,503.570557 875.872620,469.931702 
	C876.356567,459.385101 875.917969,448.709747 874.847290,438.200775 
	C873.601196,425.969482 871.795227,413.725311 869.166565,401.720062 
	C864.362671,379.780762 855.830688,359.194275 843.969055,340.099579 
	C832.564087,321.739990 818.585144,305.611176 801.159485,292.651337 
	C797.791992,290.146912 796.474243,287.054199 796.954712,282.838501 
	C798.102173,272.771118 799.270996,262.692810 799.924072,252.586151 
	C800.595825,242.189835 801.079041,231.747360 800.894958,221.338348 
	C800.667786,208.493896 799.946472,195.640717 798.918701,182.833023 
	C797.953979,170.810455 797.133179,158.677078 794.762939,146.891312 
	C791.701660,131.669022 787.563171,116.712051 781.247192,102.298317 
	C771.137329,79.226395 756.484192,60.715176 733.228516,50.104694 
	C721.587830,44.793583 709.378418,43.204391 696.689819,46.654331 
	C681.734924,50.720470 670.098450,59.201763 660.238220,71.078087 
	C643.383118,91.379501 633.527710,114.937454 627.101440,140.055191 
	C622.996399,156.100174 620.138977,172.464355 616.770874,188.454102 
	C548.416077,151.049820 479.329620,154.532059 410.347809,189.018326 
	C409.860352,183.395279 409.776276,178.266571 408.919098,173.270523 
	C405.543030,153.593369 401.424225,134.090805 394.003906,115.444176 
	C385.257385,93.464859 374.764160,72.604088 355.823486,57.381111 
	C342.876617,46.975479 328.547638,41.320507 311.384583,43.871819 
	C296.047455,46.151714 283.290344,53.186195 272.229736,63.406246 
	C256.743134,77.715912 247.576920,96.032043 241.013351,115.748505 
	C232.857285,140.248795 229.200409,165.668304 228.257233,191.270721 
	C227.383926,214.976440 228.562302,238.763916 229.080963,262.510071 
	C229.197769,267.858276 230.982056,273.210449 230.771820,278.512146 
	C230.616226,282.435944 233.408356,286.872528 228.202728,290.518951 
	C213.986053,300.477448 201.253525,312.338837 190.681351,326.054321 
	C176.556717,344.378510 166.161545,364.793274 159.349365,387.062714 
	C154.245773,403.746704 151.171875,420.792755 150.195648,438.062103 
	C149.109253,457.280640 150.129776,476.493134 153.895386,495.544922 
	C158.587814,519.285889 166.468857,541.656616 179.518890,562.132812 
	C180.267197,563.306946 180.419785,565.400513 179.934830,566.733337 
	C176.760300,575.458313 172.668961,583.902405 170.138885,592.797241 
	C165.921951,607.622437 162.415924,622.664185 159.045822,637.712280 
	C155.200974,654.880127 154.065994,672.366821 153.996887,689.930786 
	C153.932938,706.182495 155.893845,722.180359 158.859451,738.169495 
	C163.410263,762.705261 172.507919,785.275696 185.699539,806.351929 
	C186.757278,808.041931 187.186356,810.891357 186.559921,812.747131 
	C181.952393,826.397217 175.996429,839.672913 172.421356,853.569763 
	C168.245438,869.802185 164.777939,886.435913 163.355270,903.096436 
	C161.904846,920.082214 162.533722,937.275085 165.815338,954.321899 
	C168.719177,969.406128 178.349167,982.090454 197.002914,981.044250 
	C213.261063,980.132385 225.368500,964.878418 222.790100,948.951294 
	C220.594330,935.387634 218.405685,922.105469 219.778366,908.178650 
	C221.312378,892.614990 223.867004,877.340515 228.918503,862.633545 
	C234.167633,847.351196 240.122726,832.289856 246.329132,817.364746 
	C251.068832,805.966858 249.394684,795.582764 241.872482,786.573608 
	C221.982040,762.751221 213.213745,734.734924 211.283676,704.555725 
	C210.320465,689.494568 211.888596,674.206970 213.121704,659.087891 
	C214.369843,643.784058 218.304398,628.978027 222.826431,614.271362 
	C227.297058,599.731873 234.083740,586.327820 240.571701,572.701111 
	C244.933670,563.539612 244.545746,554.030884 238.749664,545.373169 
	C236.222290,541.597900 232.802032,538.433777 230.008301,534.821167 
	C221.204803,523.437134 216.143341,510.284973 212.246216,496.604584 
	C208.162842,482.270355 206.421387,467.489288 206.281921,452.744781 
	C206.178101,441.769897 208.395187,430.731873 210.034103,419.790192 
	C213.608124,395.929535 223.649734,374.812622 239.152573,356.550903 
	C253.739746,339.367859 272.311249,327.537170 293.533356,320.033264 
	C316.322632,311.975220 339.912384,308.814392 364.030884,308.943390 
	C370.794434,308.979584 376.887848,306.937225 382.298737,302.379639 
	C387.716095,297.816620 390.040100,291.688507 392.894714,285.636047 
	C399.813385,270.966644 410.107544,259.163116 423.058655,249.286209 
	C449.291779,229.279953 479.273285,219.892319 511.632996,218.315399 
	C524.022949,217.711639 536.790161,219.681625 549.027100,222.211761 
	C572.268311,227.017166 592.485352,238.113708 609.445557,254.922134 
	C620.526367,265.903748 628.981628,278.725128 635.909546,292.581482 
	C641.692627,304.148071 650.574280,309.984436 663.748657,310.118500 
	C678.245972,310.265991 692.803589,310.669983 707.207031,312.181000 
	C722.814270,313.818207 737.391785,319.341187 751.179932,326.976105 
	C774.174438,339.708954 790.446167,358.646545 802.225281,381.737274 
	C811.707947,400.326233 817.178589,420.342926 818.707947,440.920074 
	C820.530212,465.438477 819.613647,490.132019 809.774353,513.309753 
	C805.491455,523.398682 800.564087,533.377930 790.738647,539.762268 
	C779.732788,546.913696 775.587524,562.516357 781.664551,574.125305 
	C787.913513,586.062683 795.217468,597.492737 800.827209,609.710693 
	C813.750671,637.858093 820.249939,667.283447 817.150330,698.574524 
	C815.832520,711.877502 813.153687,724.742676 809.185730,737.417725 
	C803.337158,756.100098 794.300903,773.243103 783.820129,789.680664 
	C778.517639,797.996765 777.350098,806.763306 781.000793,816.021729 
	C785.289795,826.899048 790.146179,837.584534 793.833862,848.660400 
	C801.435730,871.492798 805.388489,895.060364 804.871094,919.151062 
	C804.607605,931.415955 802.572083,943.636047 802.115356,955.905334 
	C801.617737,969.274963 810.822327,979.470398 826.572021,982.664978 
	C837.213928,984.823547 848.786011,979.287842 854.789612,968.399719 
	C860.370422,958.278259 860.172729,946.673401 860.722595,935.669434 
	C861.490173,920.308289 860.333313,904.850952 860.000000,888.507568 
M372.449615,513.038086 
	C366.183197,524.921265 363.118164,537.781921 362.149628,550.997620 
	C361.348938,561.924011 363.258820,572.787903 366.706329,583.202637 
	C376.030029,611.368835 395.268341,631.123535 420.860901,644.901855 
	C447.204437,659.084351 475.800995,664.679749 505.506927,664.934875 
	C515.083923,665.017151 524.677002,664.499084 534.244812,663.944885 
	C541.253235,663.538818 548.349487,663.207397 555.202148,661.827271 
	C575.073059,657.825073 594.567993,652.593506 612.208496,642.010254 
	C626.663513,633.338196 638.709961,622.200928 647.566223,607.839783 
	C654.303772,596.914490 658.132141,584.973206 660.174316,572.227478 
	C662.140381,559.956848 662.427429,547.722839 659.751221,535.790588 
	C654.630554,512.959534 642.774231,493.534332 625.866089,477.576630 
	C612.538757,464.998413 597.275330,455.002594 580.164673,447.970581 
	C561.278320,440.208771 541.713684,435.443176 521.317749,435.147827 
	C510.169373,434.986389 498.969116,436.016113 487.845886,437.073029 
	C471.360809,438.639435 455.785553,443.724487 440.820709,450.665344 
	C427.880524,456.667114 415.866394,464.026642 404.924194,473.374298 
	C391.851898,484.541626 380.860168,497.170990 372.449615,513.038086 
M724.474548,452.985138 
	C723.177063,452.018524 721.841553,451.098663 720.588074,450.078003 
	C709.304382,440.890656 692.228210,440.835968 680.296509,447.334320 
	C665.920654,455.163849 658.791504,472.591797 661.846863,487.744415 
	C666.267090,509.666260 685.263855,520.657654 704.939026,517.762939 
	C720.054810,515.539001 730.539795,505.807709 734.653503,491.226044 
	C738.574097,477.329285 735.694885,464.152832 724.474548,452.985138 
M295.024445,500.283478 
	C295.561493,500.913788 296.163574,501.499939 296.626099,502.180847 
	C308.508575,519.674316 331.989746,523.530273 349.005127,511.127960 
	C364.780884,499.629242 368.825592,482.473236 361.424011,465.232086 
	C354.111206,448.197723 337.841583,440.189911 320.712585,443.375031 
	C299.085754,447.396545 287.155396,465.237000 290.156708,487.152618 
	C290.740692,491.416931 293.304810,495.410004 295.024445,500.283478 
z"/>
<path fill="#FFFFFF" opacity="1.000000" stroke="none" 
	d="
M860.000000,888.971191 
	C860.333313,904.850952 861.490173,920.308289 860.722595,935.669434 
	C860.172729,946.673401 860.370422,958.278259 854.789612,968.399719 
	C848.786011,979.287842 837.213928,984.823547 826.572021,982.664978 
	C810.822327,979.470398 801.617737,969.274963 802.115356,955.905334 
	C802.572083,943.636047 804.607605,931.415955 804.871094,919.151062 
	C805.388489,895.060364 801.435730,871.492798 793.833862,848.660400 
	C790.146179,837.584534 785.289795,826.899048 781.000793,816.021729 
	C777.350098,806.763306 778.517639,797.996765 783.820129,789.680664 
	C794.300903,773.243103 803.337158,756.100098 809.185730,737.417725 
	C813.153687,724.742676 815.832520,711.877502 817.150330,698.574524 
	C820.249939,667.283447 813.750671,637.858093 800.827209,609.710693 
	C795.217468,597.492737 787.913513,586.062683 781.664551,574.125305 
	C775.587524,562.516357 779.732788,546.913696 790.738647,539.762268 
	C800.564087,533.377930 805.491455,523.398682 809.774353,513.309753 
	C819.613647,490.132019 820.530212,465.438477 818.707947,440.920074 
	C817.178589,420.342926 811.707947,400.326233 802.225281,381.737274 
	C790.446167,358.646545 774.174438,339.708954 751.179932,326.976105 
	C737.391785,319.341187 722.814270,313.818207 707.207031,312.181000 
	C692.803589,310.669983 678.245972,310.265991 663.748657,310.118500 
	C650.574280,309.984436 641.692627,304.148071 635.909546,292.581482 
	C628.981628,278.725128 620.526367,265.903748 609.445557,254.922134 
	C592.485352,238.113708 572.268311,227.017166 549.027100,222.211761 
	C536.790161,219.681625 524.022949,217.711639 511.632996,218.315399 
	C479.273285,219.892319 449.291779,229.279953 423.058655,249.286209 
	C410.107544,259.163116 399.813385,270.966644 392.894714,285.636047 
	C390.040100,291.688507 387.716095,297.816620 382.298737,302.379639 
	C376.887848,306.937225 370.794434,308.979584 364.030884,308.943390 
	C339.912384,308.814392 316.322632,311.975220 293.533356,320.033264 
	C272.311249,327.537170 253.739746,339.367859 239.152573,356.550903 
	C223.649734,374.812622 213.608124,395.929535 210.034103,419.790192 
	C208.395187,430.731873 206.178101,441.769897 206.281921,452.744781 
	C206.421387,467.489288 208.162842,482.270355 212.246216,496.604584 
	C216.143341,510.284973 221.204803,523.437134 230.008301,534.821167 
	C232.802032,538.433777 236.222290,541.597900 238.749664,545.373169 
	C244.545746,554.030884 244.933670,563.539612 240.571701,572.701111 
	C234.083740,586.327820 227.297058,599.731873 222.826431,614.271362 
	C218.304398,628.978027 214.369843,643.784058 213.121704,659.087891 
	C211.888596,674.206970 210.320465,689.494568 211.283676,704.555725 
	C213.213745,734.734924 221.982040,762.751221 241.872482,786.573608 
	C249.394684,795.582764 251.068832,805.966858 246.329132,817.364746 
	C240.122726,832.289856 234.167633,847.351196 228.918503,862.633545 
	C223.867004,877.340515 221.312378,892.614990 219.778366,908.178650 
	C218.405685,922.105469 220.594330,935.387634 222.790100,948.951294 
	C225.368500,964.878418 213.261063,980.132385 197.002914,981.044250 
	C178.349167,982.090454 168.719177,969.406128 165.815338,954.321899 
	C162.533722,937.275085 161.904846,920.082214 163.355270,903.096436 
	C164.777939,886.435913 168.245438,869.802185 172.421356,853.569763 
	C175.996429,839.672913 181.952393,826.397217 186.559921,812.747131 
	C187.186356,810.891357 186.757278,808.041931 185.699539,806.351929 
	C172.507919,785.275696 163.410263,762.705261 158.859451,738.169495 
	C155.893845,722.180359 153.932938,706.182495 153.996887,689.930786 
	C154.065994,672.366821 155.200974,654.880127 159.045822,637.712280 
	C162.415924,622.664185 165.921951,607.622437 170.138885,592.797241 
	C172.668961,583.902405 176.760300,575.458313 179.934830,566.733337 
	C180.419785,565.400513 180.267197,563.306946 179.518890,562.132812 
	C166.468857,541.656616 158.587814,519.285889 153.895386,495.544922 
	C150.129776,476.493134 149.109253,457.280640 150.195648,438.062103 
	C151.171875,420.792755 154.245773,403.746704 159.349365,387.062714 
	C166.161545,364.793274 176.556717,344.378510 190.681351,326.054321 
	C201.253525,312.338837 213.986053,300.477448 228.202728,290.518951 
	C233.408356,286.872528 230.616226,282.435944 230.771820,278.512146 
	C230.982056,273.210449 229.197769,267.858276 229.080963,262.510071 
	C228.562302,238.763916 227.383926,214.976440 228.257233,191.270721 
	C229.200409,165.668304 232.857285,140.248795 241.013351,115.748505 
	C247.576920,96.032043 256.743134,77.715912 272.229736,63.406246 
	C283.290344,53.186195 296.047455,46.151714 311.384583,43.871819 
	C328.547638,41.320507 342.876617,46.975479 355.823486,57.381111 
	C374.764160,72.604088 385.257385,93.464859 394.003906,115.444176 
	C401.424225,134.090805 405.543030,153.593369 408.919098,173.270523 
	C409.776276,178.266571 409.860352,183.395279 410.347809,189.018326 
	C479.329620,154.532059 548.416077,151.049820 616.770874,188.454102 
	C620.138977,172.464355 622.996399,156.100174 627.101440,140.055191 
	C633.527710,114.937454 643.383118,91.379501 660.238220,71.078087 
	C670.098450,59.201763 681.734924,50.720470 696.689819,46.654331 
	C709.378418,43.204391 721.587830,44.793583 733.228516,50.104694 
	C756.484192,60.715176 771.137329,79.226395 781.247192,102.298317 
	C787.563171,116.712051 791.701660,131.669022 794.762939,146.891312 
	C797.133179,158.677078 797.953979,170.810455 798.918701,182.833023 
	C799.946472,195.640717 800.667786,208.493896 800.894958,221.338348 
	C801.079041,231.747360 800.595825,242.189835 799.924072,252.586151 
	C799.270996,262.692810 798.102173,272.771118 796.954712,282.838501 
	C796.474243,287.054199 797.791992,290.146912 801.159485,292.651337 
	C818.585144,305.611176 832.564087,321.739990 843.969055,340.099579 
	C855.830688,359.194275 864.362671,379.780762 869.166565,401.720062 
	C871.795227,413.725311 873.601196,425.969482 874.847290,438.200775 
	C875.917969,448.709747 876.356567,459.385101 875.872620,469.931702 
	C874.329102,503.570557 866.010742,535.251099 846.830811,563.474243 
	C845.908997,564.830627 844.589600,565.916748 843.446960,567.137634 
	C854.825195,588.877502 864.124390,611.367676 869.115662,635.571289 
	C871.826721,648.718018 873.404846,661.868042 874.148071,675.278259 
	C876.033325,709.294556 869.385620,741.651062 856.475098,772.861084 
	C852.188232,783.223999 847.291626,793.403870 841.778198,803.161438 
	C838.966614,808.137390 840.854553,811.817993 842.458618,815.902588 
	C849.120789,832.867798 854.044678,850.306396 856.986389,868.292725 
	C858.085876,875.015503 859.000854,881.768372 860.000000,888.971191 
M284.000000,213.578461 
	C284.639435,229.891159 285.278900,246.203873 285.922211,262.615204 
	C288.225861,262.150879 290.228149,261.682281 292.252777,261.349579 
	C307.254242,258.884521 322.214783,256.093811 337.284576,254.154556 
	C344.404724,253.238297 351.933685,247.977264 352.907745,240.658249 
	C353.941864,232.888245 354.718170,225.040771 354.890106,217.211380 
	C355.059875,209.479858 354.504150,201.716354 353.947388,193.989883 
	C353.479340,187.494415 353.006104,180.941727 351.738861,174.572815 
	C348.606293,158.829285 345.035919,143.097900 337.864655,128.640930 
	C333.462738,119.766937 327.864258,111.460609 322.402466,103.163086 
	C321.464233,101.737755 318.084198,100.556458 316.586243,101.153732 
	C313.690430,102.308365 310.464630,104.286148 308.912872,106.852318 
	C304.208221,114.632553 299.367889,122.524635 296.143188,130.969879 
	C286.122284,157.213959 285.546295,185.012939 284.000000,213.578461 
M743.000061,251.371460 
	C743.333374,245.286011 743.907776,239.202454 743.955994,233.114746 
	C744.118225,212.646835 744.519104,192.138931 740.947876,171.871674 
	C738.906799,160.288422 736.903381,148.643982 733.834351,137.311081 
	C730.470642,124.889977 725.082031,113.278427 715.039551,104.498016 
	C711.510864,101.412796 707.902100,101.297432 705.586670,105.042740 
	C699.601013,114.724861 692.788391,124.133636 688.440063,134.543030 
	C677.699646,160.254059 673.896851,187.554718 673.065308,215.273621 
	C672.933167,219.678131 673.589661,224.116104 674.018677,228.525269 
	C674.618347,234.688782 674.936829,240.926025 676.205505,246.957169 
	C676.779236,249.684540 677.622742,253.163498 682.376831,253.212494 
	C689.697998,253.287933 697.051147,254.051453 704.314819,255.066635 
	C716.553406,256.777069 728.732544,258.913574 741.789490,261.007690 
	C742.130554,258.558929 742.565308,255.437027 743.000061,251.371460 
z"/>
<path fill="#FFFFFF" opacity="1.000000" stroke="none" 
	d="
M372.704071,512.744690 
	C380.860168,497.170990 391.851898,484.541626 404.924194,473.374298 
	C415.866394,464.026642 427.880524,456.667114 440.820709,450.665344 
	C455.785553,443.724487 471.360809,438.639435 487.845886,437.073029 
	C498.969116,436.016113 510.169373,434.986389 521.317749,435.147827 
	C541.713684,435.443176 561.278320,440.208771 580.164673,447.970581 
	C597.275330,455.002594 612.538757,464.998413 625.866089,477.576630 
	C642.774231,493.534332 654.630554,512.959534 659.751221,535.790588 
	C662.427429,547.722839 662.140381,559.956848 660.174316,572.227478 
	C658.132141,584.973206 654.303772,596.914490 647.566223,607.839783 
	C638.709961,622.200928 626.663513,633.338196 612.208496,642.010254 
	C594.567993,652.593506 575.073059,657.825073 555.202148,661.827271 
	C548.349487,663.207397 541.253235,663.538818 534.244812,663.944885 
	C524.677002,664.499084 515.083923,665.017151 505.506927,664.934875 
	C475.800995,664.679749 447.204437,659.084351 420.860901,644.901855 
	C395.268341,631.123535 376.030029,611.368835 366.706329,583.202637 
	C363.258820,572.787903 361.348938,561.924011 362.149628,550.997620 
	C363.118164,537.781921 366.183197,524.921265 372.704071,512.744690 
M429.668121,603.971069 
	C433.332367,606.302307 436.851074,608.911804 440.685516,610.917725 
	C459.346588,620.679749 479.616852,624.751831 500.332001,625.761597 
	C513.097168,626.383789 525.992065,624.884460 538.800476,623.950928 
	C557.023376,622.622742 574.386963,617.751648 590.321411,608.851929 
	C608.738953,598.565247 619.972778,582.897827 621.919739,561.541931 
	C623.245789,546.996521 619.310486,533.566284 611.010559,521.569885 
	C597.396729,501.893097 578.856995,488.596100 556.318909,481.078217 
	C538.073914,474.992310 519.388855,472.700256 500.005188,474.806030 
	C484.215149,476.521393 469.246796,480.615753 455.196503,487.525543 
	C436.403839,496.767578 420.123199,509.410980 409.611694,528.009766 
	C400.886719,543.447510 398.958557,559.516296 406.610657,576.299255 
	C411.715485,587.495483 419.597748,596.101318 429.668121,603.971069 
z"/>
<path fill="#FFFFFF" opacity="1.000000" stroke="none" 
	d="
M724.733948,453.237488 
	C735.694885,464.152832 738.574097,477.329285 734.653503,491.226044 
	C730.539795,505.807709 720.054810,515.539001 704.939026,517.762939 
	C685.263855,520.657654 666.267090,509.666260 661.846863,487.744415 
	C658.791504,472.591797 665.920654,455.163849 680.296509,447.334320 
	C692.228210,440.835968 709.304382,440.890656 720.588074,450.078003 
	C721.841553,451.098663 723.177063,452.018524 724.733948,453.237488 
z"/>
<path fill="#FFFFFF" opacity="1.000000" stroke="none" 
	d="
M294.990021,499.905823 
	C293.304810,495.410004 290.740692,491.416931 290.156708,487.152618 
	C287.155396,465.237000 299.085754,447.396545 320.712585,443.375031 
	C337.841583,440.189911 354.111206,448.197723 361.424011,465.232086 
	C368.825592,482.473236 364.780884,499.629242 349.005127,511.127960 
	C331.989746,523.530273 308.508575,519.674316 296.626099,502.180847 
	C296.163574,501.499939 295.561493,500.913788 294.990021,499.905823 
z"/>
<path fill="#000000" opacity="1.000000" stroke="none" 
	d="
M284.000000,213.091125 
	C285.546295,185.012939 286.122284,157.213959 296.143188,130.969879 
	C299.367889,122.524635 304.208221,114.632553 308.912872,106.852318 
	C310.464630,104.286148 313.690430,102.308365 316.586243,101.153732 
	C318.084198,100.556458 321.464233,101.737755 322.402466,103.163086 
	C327.864258,111.460609 333.462738,119.766937 337.864655,128.640930 
	C345.035919,143.097900 348.606293,158.829285 351.738861,174.572815 
	C353.006104,180.941727 353.479340,187.494415 353.947388,193.989883 
	C354.504150,201.716354 355.059875,209.479858 354.890106,217.211380 
	C354.718170,225.040771 353.941864,232.888245 352.907745,240.658249 
	C351.933685,247.977264 344.404724,253.238297 337.284576,254.154556 
	C322.214783,256.093811 307.254242,258.884521 292.252777,261.349579 
	C290.228149,261.682281 288.225861,262.150879 285.922211,262.615204 
	C285.278900,246.203873 284.639435,229.891159 284.000000,213.091125 
z"/>
<path fill="#000000" opacity="1.000000" stroke="none" 
	d="
M743.000061,251.843292 
	C742.565308,255.437027 742.130554,258.558929 741.789490,261.007690 
	C728.732544,258.913574 716.553406,256.777069 704.314819,255.066635 
	C697.051147,254.051453 689.697998,253.287933 682.376831,253.212494 
	C677.622742,253.163498 676.779236,249.684540 676.205505,246.957169 
	C674.936829,240.926025 674.618347,234.688782 674.018677,228.525269 
	C673.589661,224.116104 672.933167,219.678131 673.065308,215.273621 
	C673.896851,187.554718 677.699646,160.254059 688.440063,134.543030 
	C692.788391,124.133636 699.601013,114.724861 705.586670,105.042740 
	C707.902100,101.297432 711.510864,101.412796 715.039551,104.498016 
	C725.082031,113.278427 730.470642,124.889977 733.834351,137.311081 
	C736.903381,148.643982 738.906799,160.288422 740.947876,171.871674 
	C744.519104,192.138931 744.118225,212.646835 743.955994,233.114746 
	C743.907776,239.202454 743.333374,245.286011 743.000061,251.843292 
z"/>
<path fill="#000000" opacity="1.000000" stroke="none" 
	d="
M429.359039,603.767700 
	C419.597748,596.101318 411.715485,587.495483 406.610657,576.299255 
	C398.958557,559.516296 400.886719,543.447510 409.611694,528.009766 
	C420.123199,509.410980 436.403839,496.767578 455.196503,487.525543 
	C469.246796,480.615753 484.215149,476.521393 500.005188,474.806030 
	C519.388855,472.700256 538.073914,474.992310 556.318909,481.078217 
	C578.856995,488.596100 597.396729,501.893097 611.010559,521.569885 
	C619.310486,533.566284 623.245789,546.996521 621.919739,561.541931 
	C619.972778,582.897827 608.738953,598.565247 590.321411,608.851929 
	C574.386963,617.751648 557.023376,622.622742 538.800476,623.950928 
	C525.992065,624.884460 513.097168,626.383789 500.332001,625.761597 
	C479.616852,624.751831 459.346588,620.679749 440.685516,610.917725 
	C436.851074,608.911804 433.332367,606.302307 429.359039,603.767700 
M540.440674,522.963013 
	C536.628357,519.954224 532.486572,517.631714 527.602417,519.901245 
	C523.600830,521.760742 519.687622,523.968140 516.117493,526.549927 
	C513.111938,528.723389 511.114807,529.776489 507.840637,526.582764 
	C503.713806,522.557495 498.835785,518.768616 492.616547,519.106934 
	C485.513763,519.493347 479.730316,524.468140 478.168060,530.525330 
	C476.352234,537.565430 478.763184,543.462952 485.560913,548.147095 
	C492.102753,552.654846 497.037048,557.791870 495.090881,566.749207 
	C494.503540,569.452515 495.335297,572.440002 494.931396,575.212036 
	C494.044098,581.301941 500.728638,589.848328 506.305023,590.952637 
	C516.227112,592.917725 524.954590,588.817261 526.787781,580.241699 
	C528.211060,573.583679 527.601929,566.501099 528.052429,559.617493 
	C528.151062,558.110107 528.469238,556.173950 529.452271,555.250427 
	C532.403687,552.477539 535.709961,550.076965 538.920654,547.586365 
	C546.799194,541.475037 547.764832,530.402832 540.440674,522.963013 
z"/>
<path fill="#FFFFFF" opacity="1.000000" stroke="none" 
	d="
M540.717163,523.226074 
	C547.764832,530.402832 546.799194,541.475037 538.920654,547.586365 
	C535.709961,550.076965 532.403687,552.477539 529.452271,555.250427 
	C528.469238,556.173950 528.151062,558.110107 528.052429,559.617493 
	C527.601929,566.501099 528.211060,573.583679 526.787781,580.241699 
	C524.954590,588.817261 516.227112,592.917725 506.305023,590.952637 
	C500.728638,589.848328 494.044098,581.301941 494.931396,575.212036 
	C495.335297,572.440002 494.503540,569.452515 495.090881,566.749207 
	C497.037048,557.791870 492.102753,552.654846 485.560913,548.147095 
	C478.763184,543.462952 476.352234,537.565430 478.168060,530.525330 
	C479.730316,524.468140 485.513763,519.493347 492.616547,519.106934 
	C498.835785,518.768616 503.713806,522.557495 507.840637,526.582764 
	C511.114807,529.776489 513.111938,528.723389 516.117493,526.549927 
	C519.687622,523.968140 523.600830,521.760742 527.602417,519.901245 
	C532.486572,517.631714 536.628357,519.954224 540.717163,523.226074 
z"/>
</svg>